<?xml version="1.0" encoding="utf-8"?>
<!-- Generator: Adobe Illustrator 23.0.2, SVG Export Plug-In . SVG Version: 6.00 Build 0)  -->
<svg version="1.1" id="Calque_1" xmlns="http://www.w3.org/2000/svg" xmlns:xlink="http://www.w3.org/1999/xlink" x="0px" y="0px"
	 viewBox="0 0 1920 1080" style="enable-background:new 0 0 1920 1080;" xml:space="preserve">
<style type="text/css">
	.st0 {
	fill: #FF88FF;
	transform: rotate(10deg);
	transform-origin: center;
	}
	.st1{fill:#1988FF;}
	
	
</style>
<polygon class="st0"  points="239.5,179.5 119.5,359.5 -0.5,179.5 119.5,-0.5 "/>
<polygon class="st1"  points="119.5,-0.5 -0.5,179.5 -120.5,-0.5 -0.5,-180.5 "/>
<polygon class="st1" points="120.5,359.5 0.5,539.5 -119.5,359.5 0.5,179.5 "/>
<polygon class="st1" id='test' points="359.5,360.5 239.5,540.5 119.5,360.5 239.5,180.5 "/>
<polygon class="st1" points="359.5,720.5 239.5,900.5 119.5,720.5 239.5,540.5 "/>
<polygon class="st1" points="359.5,1079.5 239.5,1259.5 119.5,1079.5 239.5,899.5 "/>
<polygon class="st1"  id='test' points="599.5,359.5 479.5,539.5 359.5,359.5 479.5,179.5 "/>
<polygon class="st1" points="599.5,719.5 479.5,899.5 359.5,719.5 479.5,539.5 "/>
<polygon class="st1" points="600.5,1077.5 480.5,1257.5 360.5,1077.5 480.5,897.5 "/>
<polygon class="st1" points="121.5,719.5 1.5,899.5 -118.5,719.5 1.5,539.5 "/>
<polygon class="st1"  id='test' points="122.5,1079.5 2.5,1259.5 -117.5,1079.5 2.5,899.5 "/>
<polygon class="st1" points="359.5,0.5 239.5,180.5 119.5,0.5 239.5,-179.5 "/>
<polygon class="st1" points="599.5,1.5 479.5,181.5 359.5,1.5 479.5,-178.5 "/>
<polygon class="st1" points="839.5,2.5 719.5,182.5 599.5,2.5 719.5,-177.5 "/>
<polygon class="st1" points="1079.5,3.5 959.5,183.5 839.5,3.5 959.5,-176.5 "/>
<polygon class="st1" points="1319.5,4.5 1199.5,184.5 1079.5,4.5 1199.5,-175.5 "/>
<polygon class="st1" points="1559.5,5.5 1439.5,185.5 1319.5,5.5 1439.5,-174.5 "/>
<polygon class="st1" points="1799.5,6.5 1679.5,186.5 1559.5,6.5 1679.5,-173.5 "/>
<polygon class="st1" points="2039.5,7.5 1919.5,187.5 1799.5,7.5 1919.5,-172.5 "/>
<polygon class="st1" points="2040.5,359.5 1920.5,539.5 1800.5,359.5 1920.5,179.5 "/>
<polygon class="st1" points="1799.5,361.5 1679.5,541.5 1559.5,361.5 1679.5,181.5 "/>
<polygon class="st1" points="1559.5,359.5 1439.5,539.5 1319.5,359.5 1439.5,179.5 "/>
<polygon class="st1" points="1319.5,359.5 1199.5,539.5 1079.5,359.5 1199.5,179.5 "/>
<polygon class="st1" points="1079.5,359.5 959.5,539.5 839.5,359.5 959.5,179.5 "/>
<polygon class="st1" points="1078.5,720.5 958.5,900.5 838.5,720.5 958.5,540.5 "/>
<polygon class="st1" points="1319.5,719.5 1199.5,899.5 1079.5,719.5 1199.5,539.5 "/>
<polygon class="st1" points="1560.5,720.5 1440.5,900.5 1320.5,720.5 1440.5,540.5 "/>
<polygon class="st1" points="1799.5,720.5 1679.5,900.5 1559.5,720.5 1679.5,540.5 "/>
<polygon class="st1" points="2040.5,720.5 1920.5,900.5 1800.5,720.5 1920.5,540.5 "/>
<polygon class="st1" points="1079.5,1077.5 959.5,1257.5 839.5,1077.5 959.5,897.5 "/>
<polygon class="st1" points="1319.5,1080.5 1199.5,1260.5 1079.5,1080.5 1199.5,900.5 "/>
<polygon class="st1" points="1560.5,1080.5 1440.5,1260.5 1320.5,1080.5 1440.5,900.5 "/>
<polygon class="st1" points="1799.5,1080.5 1679.5,1260.5 1559.5,1080.5 1679.5,900.5 "/>
<polygon class="st1" points="2038.5,1080.5 1918.5,1260.5 1798.5,1080.5 1918.5,900.5 "/>
<polygon class="st1" points="839.5,359.5 719.5,539.5 599.5,359.5 719.5,179.5 "/>
<polygon class="st1" points="839.5,719.5 719.5,899.5 599.5,719.5 719.5,539.5 "/>
<polygon class="st1" points="839.5,1079.5 719.5,1259.5 599.5,1079.5 719.5,899.5 "/>
<polygon class="st0" points="479.5,179.5 359.5,359.5 239.5,179.5 359.5,-0.5 "/>
<polygon class="st0" points="719.5,179.5 599.5,359.5 479.5,179.5 599.5,-0.5 "/>
<polygon class="st0" points="959.5,179.5 839.5,359.5 719.5,179.5 839.5,-0.5 "/>
<polygon class="st0" points="1199.5,179.5 1079.5,359.5 959.5,179.5 1079.5,-0.5 "/>
<polygon class="st0" points="1439.5,179.5 1319.5,359.5 1199.5,179.5 1319.5,-0.5 "/>
<polygon class="st0" points="1679.5,179.5 1559.5,359.5 1439.5,179.5 1559.5,-0.5 "/>
<polygon class="st0" points="1919.5,179.5 1799.5,359.5 1679.5,179.5 1799.5,-0.5 "/>
<polygon class="st0" points="1919.5,540.5 1799.5,720.5 1679.5,540.5 1799.5,360.5 "/>
<polygon class="st0" points="1679.5,540.5 1559.5,720.5 1439.5,540.5 1559.5,360.5 "/>
<polygon class="st0" points="1439.5,540.5 1319.5,720.5 1199.5,540.5 1319.5,360.5 "/>
<polygon class="st0" points="1199.5,540.5 1079.5,720.5 959.5,540.5 1079.5,360.5 "/>
<polygon class="st0" points="959.5,540.5 839.5,720.5 719.5,540.5 839.5,360.5 "/>
<polygon class="st0" points="719.5,540.5 599.5,720.5 479.5,540.5 599.5,360.5 "/>
<polygon class="st0" points="479.5,540.5 359.5,720.5 239.5,540.5 359.5,360.5 "/>
<polygon class="st0" points="239.5,540.5 119.5,720.5 -0.5,540.5 119.5,360.5 "/>
<polygon class="st0" points="239.5,900.5 119.5,1080.5 -0.5,900.5 119.5,720.5 "/>
<polygon class="st0" points="479.5,900.5 359.5,1080.5 239.5,900.5 359.5,720.5 "/>
<polygon class="st0" points="719.5,900.5 599.5,1080.5 479.5,900.5 599.5,720.5 "/>
<polygon class="st0" points="959.5,900.5 839.5,1080.5 719.5,900.5 839.5,720.5 "/>
<polygon class="st0" points="1199.5,900.5 1079.5,1080.5 959.5,900.5 1079.5,720.5 "/>
<polygon class="st0" points="1439.5,900.5 1319.5,1080.5 1199.5,900.5 1319.5,720.5 "/>
<polygon class="st0" points="1679.5,900.5 1559.5,1080.5 1439.5,900.5 1559.5,720.5 "/>
<polygon class="st0" id='test' points="1919.5,900.5 1799.5,1080.5 1679.5,900.5 1799.5,720.5 "/>
</svg>
